<svg width="1920" height="66" viewBox="0 0 1920 66" fill="none" xmlns="http://www.w3.org/2000/svg">
<rect opacity="0.2" width="252" height="16" transform="matrix(-1 0 0 1 1923 35)" fill="url(#paint0_linear_713_5842)"/>
<rect opacity="0.2" width="975" height="16" transform="matrix(-1 0 0 1 974 35)" fill="url(#paint1_linear_713_5842)"/>
<path d="M1006.14 51L1020.19 7.736H1033.12L1047.16 51H1037.79L1034.52 39.864H1018.81L1015.52 51H1006.14ZM1020.32 33.848H1033.02L1026.72 13.08H1026.62L1020.32 33.848ZM1075.92 51L1075.32 45.08V0.759998H1084.28V51H1075.92ZM1063.35 51.224C1058.44 51.224 1054.84 49.56 1052.53 46.232C1050.23 42.904 1049.08 38.1467 1049.08 31.96C1049.08 25.752 1050.23 20.9947 1052.53 17.688C1054.84 14.3813 1058.44 12.728 1063.35 12.728C1067.7 12.728 1071.44 13.784 1074.58 15.896C1077.72 17.9867 1079.28 20.248 1079.28 22.68L1075.32 26.808C1075.32 24.6747 1074.44 22.8293 1072.69 21.272C1070.94 19.7147 1068.85 18.936 1066.42 18.936C1063.84 18.936 1061.81 19.832 1060.34 21.624C1058.89 23.416 1058.16 26.872 1058.16 31.992C1058.16 37.1333 1058.89 40.6 1060.34 42.392C1061.81 44.184 1063.84 45.08 1066.42 45.08C1068.85 45.08 1070.94 44.3013 1072.69 42.744C1074.44 41.1653 1075.32 39.2987 1075.32 37.144L1079.28 41.336C1079.28 43.768 1077.72 46.0293 1074.58 48.12C1071.44 50.1893 1067.7 51.224 1063.35 51.224ZM1090.85 51V13.08H1097.83L1099.84 19.032V51H1090.85ZM1112.84 51V29.112C1112.84 25.5493 1112.38 22.968 1111.46 21.368C1110.54 19.768 1109.05 18.968 1106.98 18.968C1104.85 18.968 1103.11 19.8533 1101.76 21.624C1100.44 23.3947 1099.78 25.976 1099.78 29.368L1095.01 27.32C1095.01 23.672 1096.47 20.3333 1099.4 17.304C1102.34 14.2747 1105.86 12.76 1109.96 12.76C1114.63 12.76 1117.76 14.2853 1119.36 17.336C1120.98 20.3867 1121.8 24.0773 1121.8 28.408V51H1112.84ZM1134.69 51V29.112C1134.69 25.5493 1134.25 22.968 1133.38 21.368C1132.5 19.768 1131.02 18.968 1128.93 18.968C1126.82 18.968 1125.09 19.8533 1123.75 21.624C1122.42 23.3947 1121.76 25.976 1121.76 29.368L1116.96 27.32C1116.96 23.7573 1118.44 20.44 1121.38 17.368C1124.32 14.296 1127.84 12.76 1131.94 12.76C1136.61 12.76 1139.74 14.296 1141.32 17.368C1142.89 20.4187 1143.68 24.0987 1143.68 28.408V51H1134.69ZM1151.12 51V13.048H1160.14V51H1151.12ZM1151.12 2.072H1160.14V8.856H1151.12V2.072ZM1185.17 51.288C1180.34 51.288 1176.34 50.5093 1173.17 48.952C1170.01 47.3733 1168 44.6213 1167.15 40.696L1175.05 37.88C1175.48 40.4613 1176.58 42.36 1178.35 43.576C1180.12 44.792 1182.44 45.4 1185.29 45.4C1187.81 45.4 1189.73 44.984 1191.05 44.152C1192.4 43.32 1193.07 42.1893 1193.07 40.76C1193.07 38.776 1191.95 37.4853 1189.71 36.888C1187.49 36.2693 1184.66 35.6293 1181.23 34.968C1177.11 34.264 1173.78 33.0907 1171.25 31.448C1168.71 29.784 1167.44 27.0747 1167.44 23.32C1167.44 19.7787 1168.93 17.1333 1171.92 15.384C1174.9 13.6133 1178.9 12.728 1183.92 12.728C1188.8 12.728 1192.75 13.5173 1195.76 15.096C1198.77 16.6533 1200.66 19.288 1201.45 23L1193.55 25.816C1193.12 23.5333 1192.06 21.7627 1190.35 20.504C1188.66 19.224 1186.48 18.584 1183.79 18.584C1181.25 18.584 1179.36 19.0107 1178.13 19.864C1176.91 20.696 1176.3 21.848 1176.3 23.32C1176.3 25.176 1177.36 26.4133 1179.47 27.032C1181.58 27.6293 1184.28 28.248 1187.57 28.888C1191.66 29.5707 1195.09 30.6587 1197.84 32.152C1200.59 33.624 1201.97 36.2693 1201.97 40.088C1201.97 44.0347 1200.52 46.8933 1197.61 48.664C1194.73 50.4133 1190.58 51.288 1185.17 51.288ZM1225.17 51.288C1220.34 51.288 1216.34 50.5093 1213.17 48.952C1210.01 47.3733 1208 44.6213 1207.15 40.696L1215.05 37.88C1215.48 40.4613 1216.58 42.36 1218.35 43.576C1220.12 44.792 1222.44 45.4 1225.29 45.4C1227.81 45.4 1229.73 44.984 1231.05 44.152C1232.4 43.32 1233.07 42.1893 1233.07 40.76C1233.07 38.776 1231.95 37.4853 1229.71 36.888C1227.49 36.2693 1224.66 35.6293 1221.23 34.968C1217.11 34.264 1213.78 33.0907 1211.25 31.448C1208.71 29.784 1207.44 27.0747 1207.44 23.32C1207.44 19.7787 1208.93 17.1333 1211.92 15.384C1214.9 13.6133 1218.9 12.728 1223.92 12.728C1228.8 12.728 1232.75 13.5173 1235.76 15.096C1238.77 16.6533 1240.66 19.288 1241.45 23L1233.55 25.816C1233.12 23.5333 1232.06 21.7627 1230.35 20.504C1228.66 19.224 1226.48 18.584 1223.79 18.584C1221.25 18.584 1219.36 19.0107 1218.13 19.864C1216.91 20.696 1216.3 21.848 1216.3 23.32C1216.3 25.176 1217.36 26.4133 1219.47 27.032C1221.58 27.6293 1224.28 28.248 1227.57 28.888C1231.66 29.5707 1235.09 30.6587 1237.84 32.152C1240.59 33.624 1241.97 36.2693 1241.97 40.088C1241.97 44.0347 1240.52 46.8933 1237.61 48.664C1234.73 50.4133 1230.58 51.288 1225.17 51.288ZM1248.56 51V13.048H1257.58V51H1248.56ZM1248.56 2.072H1257.58V8.856H1248.56V2.072ZM1282.28 51.288C1275.86 51.288 1271.22 49.656 1268.36 46.392C1265.5 43.1067 1264.08 38.2747 1264.08 31.896C1264.08 25.5173 1265.5 20.7173 1268.36 17.496C1271.22 14.2747 1275.86 12.664 1282.28 12.664C1288.7 12.664 1293.34 14.2747 1296.2 17.496C1299.06 20.7173 1300.49 25.5173 1300.49 31.896C1300.49 38.2747 1299.06 43.1067 1296.2 46.392C1293.34 49.656 1288.7 51.288 1282.28 51.288ZM1282.28 45.144C1284.97 45.144 1287.18 44.2587 1288.91 42.488C1290.64 40.696 1291.5 37.1867 1291.5 31.96C1291.5 26.712 1290.64 23.2027 1288.91 21.432C1287.18 19.6613 1284.97 18.776 1282.28 18.776C1279.6 18.776 1277.39 19.6613 1275.66 21.432C1273.93 23.2027 1273.07 26.712 1273.07 31.96C1273.07 37.1867 1273.93 40.696 1275.66 42.488C1277.39 44.2587 1279.6 45.144 1282.28 45.144ZM1306.16 51V13.08H1313.14L1315.12 19.864V51H1306.16ZM1330.48 51V30.264C1330.48 25.976 1329.91 23.0213 1328.76 21.4C1327.62 19.7573 1325.89 18.936 1323.54 18.936C1321.11 18.936 1319.05 19.8747 1317.36 21.752C1315.68 23.6293 1314.84 26.04 1314.84 28.984L1310.48 26.744C1310.48 23.48 1312 20.3333 1315.03 17.304C1318.08 14.2533 1322.02 12.728 1326.87 12.728C1331.54 12.728 1334.8 14.3067 1336.66 17.464C1338.54 20.6213 1339.48 24.856 1339.48 30.168V51H1330.48ZM1363.54 51.288C1358.72 51.288 1354.72 50.5093 1351.54 48.952C1348.38 47.3733 1346.38 44.6213 1345.53 40.696L1353.43 37.88C1353.86 40.4613 1354.95 42.36 1356.73 43.576C1358.5 44.792 1360.81 45.4 1363.67 45.4C1366.19 45.4 1368.11 44.984 1369.43 44.152C1370.77 43.32 1371.45 42.1893 1371.45 40.76C1371.45 38.776 1370.33 37.4853 1368.09 36.888C1365.87 36.2693 1363.04 35.6293 1359.61 34.968C1355.49 34.264 1352.16 33.0907 1349.62 31.448C1347.08 29.784 1345.81 27.0747 1345.81 23.32C1345.81 19.7787 1347.31 17.1333 1350.29 15.384C1353.28 13.6133 1357.28 12.728 1362.29 12.728C1367.18 12.728 1371.13 13.5173 1374.13 15.096C1377.14 16.6533 1379.04 19.288 1379.83 23L1371.93 25.816C1371.5 23.5333 1370.43 21.7627 1368.73 20.504C1367.04 19.224 1364.85 18.584 1362.17 18.584C1359.63 18.584 1357.74 19.0107 1356.5 19.864C1355.29 20.696 1354.68 21.848 1354.68 23.32C1354.68 25.176 1355.73 26.4133 1357.85 27.032C1359.96 27.6293 1362.66 28.248 1365.94 28.888C1370.04 29.5707 1373.46 30.6587 1376.21 32.152C1378.97 33.624 1380.34 36.2693 1380.34 40.088C1380.34 44.0347 1378.89 46.8933 1375.99 48.664C1373.11 50.4133 1368.96 51.288 1363.54 51.288Z" fill="#096964"/>
<path d="M1401.56 51V7.8H1418.33C1422.75 7.8 1425.77 9.208 1427.39 12.024C1429.03 14.84 1429.85 18.4133 1429.85 22.744C1429.85 27.096 1429.03 30.6907 1427.39 33.528C1425.77 36.344 1422.75 37.752 1418.33 37.752H1405.53V51H1401.56ZM1405.53 34.872H1417.12C1420.38 34.872 1422.65 33.8053 1423.93 31.672C1425.21 29.5173 1425.85 26.552 1425.85 22.776C1425.85 19.0213 1425.2 16.0667 1423.9 13.912C1422.62 11.736 1420.36 10.648 1417.12 10.648H1405.53V34.872ZM1458.34 30.168C1458.34 24.7067 1457.67 20.92 1456.33 18.808C1455 16.6747 1452.99 15.608 1450.28 15.608C1447.23 15.608 1444.84 16.6107 1443.11 18.616C1441.4 20.6 1440.55 22.84 1440.55 25.336L1439.01 23.928C1439.01 20.856 1440.13 18.232 1442.37 16.056C1444.63 13.8587 1447.72 12.76 1451.62 12.76C1455.53 12.76 1458.28 14.136 1459.88 16.888C1461.5 19.6187 1462.31 24.0453 1462.31 30.168H1458.34ZM1436.65 51V13.112H1439.78L1440.58 20.888V51H1436.65ZM1482.35 51.256C1477.44 51.256 1473.68 49.7413 1471.08 46.712C1468.5 43.6613 1467.21 38.7547 1467.21 31.992C1467.21 25.1867 1468.5 20.2693 1471.08 17.24C1473.68 14.2107 1477.44 12.696 1482.35 12.696C1487.25 12.696 1491 14.2107 1493.58 17.24C1496.18 20.2693 1497.48 25.1867 1497.48 31.992C1497.48 38.7547 1496.18 43.6613 1493.58 46.712C1491 49.7413 1487.25 51.256 1482.35 51.256ZM1482.35 48.44C1485.59 48.44 1488.25 47.256 1490.35 44.888C1492.46 42.52 1493.51 38.2213 1493.51 31.992C1493.51 25.7627 1492.46 21.464 1490.35 19.096C1488.25 16.7067 1485.59 15.512 1482.35 15.512C1479.1 15.512 1476.43 16.7067 1474.31 19.096C1472.2 21.464 1471.15 25.7627 1471.15 31.992C1471.15 38.2213 1472.2 42.52 1474.31 44.888C1476.43 47.256 1479.1 48.44 1482.35 48.44ZM1517.8 51.288C1512.73 51.288 1508.94 49.6453 1506.44 46.36C1503.97 43.0533 1502.73 38.2853 1502.73 32.056C1502.73 25.4 1503.97 20.5253 1506.44 17.432C1508.94 14.3173 1512.73 12.76 1517.8 12.76C1522.58 12.76 1526.04 14.1253 1528.17 16.856C1530.33 19.5867 1531.47 22.7013 1531.6 26.2L1528.01 27.288C1527.97 23.9387 1527.07 21.1547 1525.32 18.936C1523.6 16.7173 1521.09 15.608 1517.8 15.608C1514.43 15.608 1511.74 16.856 1509.74 19.352C1507.73 21.8267 1506.73 26.0613 1506.73 32.056C1506.73 37.6027 1507.74 41.72 1509.77 44.408C1511.8 47.096 1514.48 48.44 1517.8 48.44C1521.07 48.44 1523.57 47.2347 1525.32 44.824C1527.07 42.392 1527.97 39.736 1528.01 36.856L1531.6 37.976C1531.47 41.0267 1530.33 44.0133 1528.17 46.936C1526.02 49.8373 1522.56 51.288 1517.8 51.288ZM1552.69 51.288C1547.57 51.288 1543.8 49.592 1541.39 46.2C1538.96 42.808 1537.74 38.04 1537.74 31.896C1537.74 25.3253 1539 20.4827 1541.52 17.368C1544.02 14.2747 1547.74 12.728 1552.69 12.728C1557.79 12.728 1561.53 14.264 1563.92 17.336C1566.29 20.4293 1567.47 25.2507 1567.47 31.8C1567.47 32.2693 1567.45 32.7387 1567.41 33.208H1541.04V30.616H1563.5C1563.38 25.1547 1562.44 21.2827 1560.69 19C1558.77 16.632 1556.1 15.448 1552.69 15.448C1549.36 15.448 1546.68 16.6747 1544.66 19.128C1542.61 21.5813 1541.58 25.848 1541.58 31.928C1541.58 37.56 1542.55 41.7307 1544.5 44.44C1546.44 47.192 1549.17 48.568 1552.69 48.568V51.288ZM1552.69 48.568C1554.71 48.568 1556.52 48.2053 1558.1 47.48C1559.67 46.7333 1560.89 45.4747 1561.74 43.704C1562.55 41.912 1563.1 39.9387 1563.38 37.784L1566.99 38.648C1566.69 41.3147 1565.97 43.64 1564.82 45.624C1563.64 47.6293 1562.05 49.0693 1560.05 49.944C1558.02 50.84 1555.57 51.288 1552.69 51.288V48.568ZM1588.34 51.256C1584.03 51.256 1580.64 50.392 1578.17 48.664C1575.71 46.936 1574.25 43.7893 1573.78 39.224L1577.33 38.136C1577.63 41.9333 1578.72 44.6213 1580.6 46.2C1582.47 47.7573 1585.08 48.536 1588.41 48.536C1591.71 48.536 1594.17 47.9173 1595.77 46.68C1597.37 45.4427 1598.17 43.8533 1598.17 41.912C1598.17 39.0747 1597.03 37.144 1594.77 36.12C1592.53 35.096 1589.74 34.1467 1586.39 33.272C1582.78 32.3333 1579.83 31.1493 1577.53 29.72C1575.22 28.2693 1574.07 25.8053 1574.07 22.328C1574.07 19.32 1575.23 16.9733 1577.56 15.288C1579.9 13.6027 1583.24 12.76 1587.57 12.76C1591.93 12.76 1595.27 13.656 1597.62 15.448C1599.99 17.2187 1601.39 20.152 1601.81 24.248L1598.26 25.336C1597.96 22.008 1596.92 19.5333 1595.13 17.912C1593.35 16.2907 1590.83 15.48 1587.54 15.48C1584.32 15.48 1581.92 16.0987 1580.34 17.336C1578.78 18.5733 1578.01 20.2373 1578.01 22.328C1578.01 24.888 1579.06 26.68 1581.17 27.704C1583.31 28.7067 1586.01 29.6347 1589.27 30.488C1592.9 31.384 1595.94 32.536 1598.39 33.944C1600.86 35.352 1602.1 37.9227 1602.1 41.656C1602.1 44.728 1600.95 47.096 1598.65 48.76C1596.36 50.424 1592.93 51.256 1588.34 51.256ZM1622.78 51.256C1618.47 51.256 1615.08 50.392 1612.6 48.664C1610.15 46.936 1608.69 43.7893 1608.22 39.224L1611.77 38.136C1612.07 41.9333 1613.16 44.6213 1615.03 46.2C1616.91 47.7573 1619.51 48.536 1622.84 48.536C1626.15 48.536 1628.6 47.9173 1630.2 46.68C1631.8 45.4427 1632.6 43.8533 1632.6 41.912C1632.6 39.0747 1631.47 37.144 1629.21 36.12C1626.97 35.096 1624.18 34.1467 1620.83 33.272C1617.22 32.3333 1614.27 31.1493 1611.96 29.72C1609.66 28.2693 1608.51 25.8053 1608.51 22.328C1608.51 19.32 1609.67 16.9733 1611.99 15.288C1614.34 13.6027 1617.68 12.76 1622.01 12.76C1626.36 12.76 1629.71 13.656 1632.06 15.448C1634.43 17.2187 1635.82 20.152 1636.25 24.248L1632.7 25.336C1632.4 22.008 1631.35 19.5333 1629.56 17.912C1627.79 16.2907 1625.26 15.48 1621.98 15.48C1618.76 15.48 1616.36 16.0987 1614.78 17.336C1613.22 18.5733 1612.44 20.2373 1612.44 22.328C1612.44 24.888 1613.5 26.68 1615.61 27.704C1617.74 28.7067 1620.44 29.6347 1623.71 30.488C1627.33 31.384 1630.37 32.536 1632.83 33.944C1635.3 35.352 1636.54 37.9227 1636.54 41.656C1636.54 44.728 1635.39 47.096 1633.08 48.76C1630.8 50.424 1627.37 51.256 1622.78 51.256Z" fill="black"/>
<defs>
<linearGradient id="paint0_linear_713_5842" x1="0" y1="8" x2="252" y2="8" gradientUnits="userSpaceOnUse">
<stop offset="0.281782" stop-color="#096964"/>
<stop offset="1" stop-color="#096964" stop-opacity="0"/>
</linearGradient>
<linearGradient id="paint1_linear_713_5842" x1="0" y1="8" x2="975" y2="8" gradientUnits="userSpaceOnUse">
<stop stop-color="#096964" stop-opacity="0.05"/>
<stop offset="0.327601" stop-color="#096964"/>
</linearGradient>
</defs>
</svg>
