<svg width="17" height="17" viewBox="0 0 17 17" fill="none" xmlns="http://www.w3.org/2000/svg">
<path d="M2.5 8.75003C2.5 8.46979 2.70544 8.23785 2.97168 8.2012L3.0459 8.19632H12.6338L9.16992 4.69632C8.95648 4.48064 8.95551 4.12976 9.16797 3.91311C9.3611 3.71627 9.66407 3.69739 9.87793 3.85745L9.93945 3.91116L14.3398 8.35745C14.3903 8.40849 14.4275 8.46776 14.4541 8.5303C14.4592 8.54231 14.4625 8.55497 14.4668 8.56741C14.4734 8.58653 14.4799 8.60541 14.4844 8.62503C14.4877 8.6398 14.49 8.65475 14.4922 8.66995C14.4953 8.69174 14.4975 8.71341 14.498 8.73538C14.4982 8.74026 14.5 8.74511 14.5 8.75003C14.5 8.75824 14.4974 8.76631 14.4971 8.77444C14.4962 8.79446 14.4942 8.81417 14.4912 8.83401C14.489 8.84857 14.4867 8.86282 14.4834 8.87698C14.4797 8.89307 14.4759 8.90907 14.4707 8.92483C14.4653 8.94122 14.459 8.95702 14.4521 8.97268C14.4458 8.98737 14.4384 9.00147 14.4307 9.01565C14.4229 9.02997 14.4152 9.04413 14.4062 9.05765C14.4015 9.06484 14.3977 9.0731 14.3926 9.08011L14.374 9.10159C14.3672 9.11003 14.3599 9.118 14.3525 9.126L14.3398 9.14163L9.93945 13.5889C9.72599 13.8045 9.38051 13.8035 9.16797 13.5869C8.97484 13.39 8.95834 13.0826 9.11719 12.8662L9.16992 12.8047L12.6328 9.30374H3.0459C2.74465 9.30374 2.5 9.05574 2.5 8.75003Z" fill="black"/>
</svg>
