<svg width="1920" height="800" viewBox="0 0 1920 800" fill="none" xmlns="http://www.w3.org/2000/svg">
<rect width="1920" height="797" fill="#DFE6EB"/>
<g filter="url(#filter0_f_713_5806)">
<rect x="13" y="11" width="793" height="776" fill="#E2EBF2"/>
</g>
<mask id="mask0_713_5806" style="mask-type:alpha" maskUnits="userSpaceOnUse" x="0" y="0" width="1920" height="797">
<rect width="1920" height="797" fill="#DFE6EB"/>
</mask>
<g mask="url(#mask0_713_5806)">
<g filter="url(#filter1_f_713_5806)">
<path d="M1265 874C1204.72 874 1145.04 862.697 1089.35 840.735C1033.66 818.774 983.06 786.585 940.438 746.006C897.816 705.426 864.006 657.252 840.939 604.233C817.872 551.213 806 494.388 806 437C806 379.612 817.872 322.787 840.939 269.767C864.006 216.748 897.816 168.573 940.438 127.994C983.06 87.4151 1033.66 55.2259 1089.35 33.2646C1145.04 11.3033 1204.72 -2.77153e-05 1265 -2.00635e-05L1265 437L1265 874Z" fill="url(#paint0_linear_713_5806)"/>
</g>
<g filter="url(#filter2_f_713_5806)">
<path d="M1923 874C1836.59 874 1751.03 862.697 1671.19 840.735C1591.36 818.774 1518.82 786.585 1457.72 746.006C1396.62 705.426 1348.15 657.252 1315.09 604.233C1282.02 551.213 1265 494.388 1265 437C1265 379.612 1282.02 322.787 1315.09 269.767C1348.15 216.748 1396.62 168.573 1457.72 127.994C1518.82 87.4151 1591.36 55.2259 1671.19 33.2646C1751.03 11.3033 1836.59 -3.75562e-05 1923 -2.87621e-05L1923 437L1923 874Z" fill="url(#paint1_linear_713_5806)"/>
</g>
</g>
<defs>
<filter id="filter0_f_713_5806" x="0.4" y="-1.6" width="818.2" height="801.2" filterUnits="userSpaceOnUse" color-interpolation-filters="sRGB">
<feFlood flood-opacity="0" result="BackgroundImageFix"/>
<feBlend mode="normal" in="SourceGraphic" in2="BackgroundImageFix" result="shape"/>
<feGaussianBlur stdDeviation="6.3" result="effect1_foregroundBlur_713_5806"/>
</filter>
<filter id="filter1_f_713_5806" x="801" y="-5" width="469" height="884" filterUnits="userSpaceOnUse" color-interpolation-filters="sRGB">
<feFlood flood-opacity="0" result="BackgroundImageFix"/>
<feBlend mode="normal" in="SourceGraphic" in2="BackgroundImageFix" result="shape"/>
<feGaussianBlur stdDeviation="2.5" result="effect1_foregroundBlur_713_5806"/>
</filter>
<filter id="filter2_f_713_5806" x="1260" y="-5" width="668" height="884" filterUnits="userSpaceOnUse" color-interpolation-filters="sRGB">
<feFlood flood-opacity="0" result="BackgroundImageFix"/>
<feBlend mode="normal" in="SourceGraphic" in2="BackgroundImageFix" result="shape"/>
<feGaussianBlur stdDeviation="2.5" result="effect1_foregroundBlur_713_5806"/>
</filter>
<linearGradient id="paint0_linear_713_5806" x1="1265" y1="-2.00635e-05" x2="1265" y2="874" gradientUnits="userSpaceOnUse">
<stop stop-color="#ECF0F3"/>
<stop offset="1" stop-color="#E5EAEE"/>
</linearGradient>
<linearGradient id="paint1_linear_713_5806" x1="1923" y1="-2.87621e-05" x2="1923" y2="874" gradientUnits="userSpaceOnUse">
<stop stop-color="#E4E8EB"/>
<stop offset="1" stop-color="#E9EEF1"/>
</linearGradient>
</defs>
</svg>
