<svg width="1920" height="66" viewBox="0 0 1920 66" fill="none" xmlns="http://www.w3.org/2000/svg">
<rect opacity="0.2" x="-1" y="35" width="242" height="16" fill="url(#paint0_linear_713_5834)"/>
<rect opacity="0.2" x="809" y="35" width="1167" height="16" fill="url(#paint1_linear_713_5834)"/>
<path d="M296.472 51.288C290.755 51.288 286.765 50.072 284.504 47.64C282.243 45.1867 281.112 40.8773 281.112 34.712H285.112C285.112 40.3227 286.04 44.0133 287.896 45.784C289.773 47.5547 292.621 48.44 296.44 48.44C300.216 48.44 303.053 47.6933 304.952 46.2C306.872 44.7067 307.832 42.744 307.832 40.312C307.832 37.3467 306.733 35.256 304.536 34.04C302.339 32.824 299.213 31.6827 295.16 30.616C290.317 29.3147 286.765 27.864 284.504 26.264C282.264 24.664 281.144 22.104 281.144 18.584C281.144 15.4907 282.317 12.8667 284.664 10.712C287.032 8.536 290.957 7.448 296.44 7.448C302.093 7.448 306.061 8.696 308.344 11.192C310.627 13.6667 311.768 17.8267 311.768 23.672H307.736C307.736 18.232 306.787 14.648 304.888 12.92C302.989 11.1707 300.163 10.296 296.408 10.296C292.653 10.296 289.816 11.0533 287.896 12.568C285.997 14.0613 285.048 15.928 285.048 18.168C285.048 20.9627 286.136 23.0107 288.312 24.312C290.488 25.592 293.581 26.7547 297.592 27.8C302.541 29.144 306.136 30.5733 308.376 32.088C310.637 33.5813 311.768 36.1627 311.768 39.832C311.768 43.0533 310.605 45.7733 308.28 47.992C305.955 50.1893 302.019 51.288 296.472 51.288ZM333.87 51.384C331.416 51.384 329.39 50.8293 327.79 49.72C326.19 48.6107 325.39 46.4987 325.39 43.384V15.96H316.366V13.112H325.39V4.568H329.326V13.112H342.382V15.96H329.326V42.36C329.326 44.856 329.827 46.52 330.83 47.352C331.854 48.1627 333.294 48.568 335.15 48.568C336.707 48.568 338.211 48.344 339.662 47.896V50.648C337.827 51.1387 335.896 51.384 333.87 51.384ZM372.263 51L371.463 44.376V13.112H375.399V51H372.263ZM352.103 13.048V35.608C352.103 40.1307 352.828 43.416 354.279 45.464C355.751 47.4907 357.98 48.504 360.967 48.504C363.932 48.504 366.428 47.48 368.455 45.432C370.481 43.384 371.495 40.8453 371.495 37.816L373.415 39.544C373.415 42.488 372.145 45.1973 369.607 47.672C367.089 50.1253 363.783 51.352 359.687 51.352C355.569 51.352 352.615 49.9973 350.823 47.288C349.052 44.5787 348.167 40.7173 348.167 35.704V13.048H352.103ZM407.333 51L407.077 44.408V0.759998H411.013V51H407.333ZM395.077 51.256C390.874 51.256 387.653 49.7307 385.413 46.68C383.194 43.608 382.085 38.712 382.085 31.992C382.085 25.2293 383.194 20.3227 385.413 17.272C387.653 14.2213 390.874 12.696 395.077 12.696C398.981 12.696 402.234 13.7413 404.837 15.832C407.439 17.9013 408.741 19.9707 408.741 22.04L407.077 24.696C407.077 22.4347 406.031 20.3547 403.941 18.456C401.85 16.536 399.311 15.576 396.325 15.576C393.21 15.576 390.725 16.76 388.869 19.128C387.013 21.496 386.085 25.784 386.085 31.992C386.085 38.2 387.013 42.488 388.869 44.856C390.725 47.224 393.21 48.408 396.325 48.408C399.311 48.408 401.85 47.448 403.941 45.528C406.031 43.608 407.077 41.5067 407.077 39.224L408.741 41.944C408.741 44.0133 407.439 46.0827 404.837 48.152C402.234 50.2213 398.981 51.256 395.077 51.256ZM426.889 51L415.625 13.112H419.753L429.865 48.12H429.929L439.945 13.112H444.105L432.905 51H426.889ZM416.424 65.688V62.872C419.582 62.872 422.153 62.072 424.137 60.472C426.142 58.8933 427.827 55.736 429.193 51H432.905C431.219 56.824 429.043 60.728 426.377 62.712C423.71 64.696 420.393 65.688 416.424 65.688ZM625.517 51.352C623.533 51.352 621.634 51.2027 619.821 50.904C618.008 50.584 616.322 50.104 614.765 49.464C613.208 48.8027 611.789 47.96 610.509 46.936C609.25 45.912 608.173 44.6747 607.277 43.224C606.381 41.7733 605.688 40.0987 605.197 38.2C604.728 36.3013 604.504 34.1573 604.525 31.768C604.525 28.568 604.888 25.6987 605.613 23.16C606.338 20.6213 607.394 18.4133 608.781 16.536C610.168 14.6587 611.874 13.1013 613.901 11.864C615.949 10.6267 618.296 9.70933 620.941 9.112C623.586 8.49333 626.53 8.184 629.773 8.184C633.4 8.184 636.536 8.58933 639.181 9.4C641.848 10.1893 644.024 11.3733 645.709 12.952C647.394 14.5307 648.642 16.4613 649.453 18.744C650.285 21.0053 650.69 23.608 650.669 26.552C650.648 28.792 650.424 30.776 649.997 32.504C649.57 34.2107 648.984 35.6827 648.237 36.92C647.512 38.136 646.658 39.1387 645.677 39.928C644.696 40.696 643.64 41.2613 642.509 41.624C641.378 41.9867 640.226 42.168 639.053 42.168C638.2 42.168 637.389 42.072 636.621 41.88C635.874 41.6667 635.202 41.3573 634.605 40.952C634.029 40.5253 633.592 40.0133 633.293 39.416C633.016 38.8187 632.92 38.1573 633.005 37.432C632.749 38.2427 632.258 38.9467 631.533 39.544C630.829 40.1413 629.954 40.6 628.909 40.92C627.864 41.24 626.722 41.4 625.485 41.4C624.482 41.4 623.501 41.1867 622.541 40.76C621.602 40.312 620.76 39.6507 620.013 38.776C619.266 37.9013 618.669 36.8027 618.221 35.48C617.794 34.1573 617.581 32.6213 617.581 30.872C617.602 28.7173 617.89 26.8293 618.445 25.208C619.021 23.5653 619.778 22.1893 620.717 21.08C621.656 19.9707 622.722 19.128 623.917 18.552C625.112 17.976 626.328 17.688 627.565 17.688C628.802 17.688 629.869 17.9227 630.765 18.392C631.661 18.84 632.354 19.3733 632.845 19.992C633.336 20.5893 633.602 21.1227 633.645 21.592L633.933 18.232H636.077L634.541 36.088C634.456 37.0907 634.605 37.8907 634.989 38.488C635.394 39.0853 635.96 39.512 636.685 39.768C637.432 40.024 638.253 40.152 639.149 40.152C640.706 40.152 642.093 39.6827 643.309 38.744C644.525 37.784 645.485 36.312 646.189 34.328C646.893 32.3227 647.256 29.752 647.277 26.616C647.298 24.0347 646.978 21.752 646.317 19.768C645.677 17.784 644.642 16.12 643.213 14.776C641.784 13.4107 639.917 12.376 637.613 11.672C635.33 10.968 632.589 10.616 629.389 10.616C625.976 10.616 622.936 11.032 620.269 11.864C617.624 12.696 615.384 13.976 613.549 15.704C611.736 17.4107 610.349 19.576 609.389 22.2C608.429 24.824 607.938 27.928 607.917 31.512C607.896 34.0507 608.173 36.28 608.749 38.2C609.325 40.12 610.136 41.7627 611.181 43.128C612.248 44.4933 613.517 45.6027 614.989 46.456C616.461 47.288 618.104 47.9067 619.917 48.312C621.752 48.696 623.693 48.888 625.741 48.888C627.938 48.888 629.805 48.7173 631.341 48.376C632.898 48.0347 634.189 47.6293 635.213 47.16C636.237 46.6907 637.016 46.2427 637.549 45.816C638.082 45.3893 638.402 45.112 638.509 44.984L640.653 46.936C640.418 47.1707 639.938 47.5333 639.213 48.024C638.509 48.5147 637.538 49.016 636.301 49.528C635.085 50.0187 633.581 50.4453 631.789 50.808C629.997 51.1707 627.906 51.352 625.517 51.352ZM626.189 39.512C627.853 39.512 629.272 39.032 630.445 38.072C631.64 37.112 632.333 35.9067 632.525 34.456L633.293 24.728C633.314 23.704 633.069 22.8293 632.557 22.104C632.045 21.3573 631.373 20.792 630.541 20.408C629.709 20.0027 628.834 19.8 627.917 19.8C627.042 19.8 626.146 20.0453 625.229 20.536C624.333 21.0053 623.501 21.7093 622.733 22.648C621.986 23.5653 621.378 24.7067 620.909 26.072C620.461 27.416 620.237 28.9413 620.237 30.648C620.216 32.0347 620.365 33.2827 620.685 34.392C621.005 35.48 621.432 36.408 621.965 37.176C622.52 37.9227 623.16 38.4987 623.885 38.904C624.632 39.3093 625.4 39.512 626.189 39.512ZM659.206 51V7.8H663.142V51H659.206ZM674.268 51V7.8H678.204V51H674.268ZM689.331 51V7.8H693.267V51H689.331ZM714.679 51V10.648H701.207V7.8H732.087V10.648H718.647V51H714.679ZM737.252 51V7.8H753.06C758.18 7.8 761.903 9.32533 764.228 12.376C766.575 15.4267 767.748 21.1013 767.748 29.4C767.748 37.6773 766.575 43.352 764.228 46.424C761.881 49.4747 758.159 51 753.06 51H737.252ZM741.22 48.152H752.004C755.929 48.152 758.873 46.936 760.836 44.504C762.799 42.072 763.78 37.0373 763.78 29.4C763.78 21.7413 762.799 16.7067 760.836 14.296C758.873 11.864 755.929 10.648 752.004 10.648H741.22V48.152Z" fill="black"/>
<path d="M482.265 51.256C475.076 51.256 470.094 49.4427 467.321 45.816C464.548 42.168 463.161 36.664 463.161 29.304C463.161 21.9227 464.548 16.4293 467.321 12.824C470.094 9.21866 475.065 7.416 482.233 7.416C489.444 7.416 494.308 9.12266 496.825 12.536C499.342 15.928 500.601 20.0987 500.601 25.048H491.385C491.385 20.7173 490.596 17.7413 489.017 16.12C487.46 14.4773 485.177 13.656 482.169 13.656C479.14 13.656 476.75 14.584 475.001 16.44C473.252 18.2747 472.377 22.5627 472.377 29.304C472.377 36.0453 473.252 40.3547 475.001 42.232C476.75 44.1093 479.14 45.048 482.169 45.048C485.156 45.048 487.438 44.216 489.017 42.552C490.596 40.8667 491.385 37.8907 491.385 33.624H500.601C500.601 38.4453 499.332 42.5947 496.793 46.072C494.276 49.528 489.433 51.256 482.265 51.256ZM523.977 51.256C516.83 51.256 511.966 49.9227 509.385 47.256C506.825 44.568 505.545 40.5573 505.545 35.224H514.633C514.633 39.4053 515.454 42.0933 517.097 43.288C518.74 44.4827 521.012 45.08 523.913 45.08C526.793 45.08 529.054 44.6 530.697 43.64C532.361 42.68 533.193 41.2827 533.193 39.448C533.193 37.2507 532.116 35.736 529.961 34.904C527.828 34.0507 524.841 33.2187 521.001 32.408C515.326 31.128 511.337 29.6773 509.033 28.056C506.729 26.4347 505.577 23.8 505.577 20.152C505.577 16.6533 506.889 13.656 509.513 11.16C512.158 8.664 516.937 7.416 523.849 7.416C530.825 7.416 535.614 8.792 538.217 11.544C540.82 14.296 542.121 18.1893 542.121 23.224H533.001C533.001 19.1493 532.158 16.5253 530.473 15.352C528.788 14.1787 526.548 13.592 523.753 13.592C520.83 13.592 518.537 14.0933 516.873 15.096C515.209 16.0987 514.377 17.4427 514.377 19.128C514.377 21.3253 515.465 22.8507 517.641 23.704C519.838 24.5573 522.825 25.4 526.601 26.232C532.446 27.5333 536.5 28.9307 538.761 30.424C541.022 31.9173 542.153 34.5093 542.153 38.2C542.153 41.8267 540.862 44.9093 538.281 47.448C535.721 49.9867 530.953 51.256 523.977 51.256ZM547.78 51V7.8H568.324C574.105 7.8 578.169 9.37867 580.516 12.536C582.884 15.6933 584.068 21.304 584.068 29.368C584.068 37.4533 582.884 43.0853 580.516 46.264C578.148 49.4213 574.084 51 568.324 51H547.78ZM556.868 44.792H565.86C568.953 44.792 571.246 43.9067 572.74 42.136C574.233 40.3653 574.98 36.1093 574.98 29.368C574.98 22.648 574.233 18.4133 572.74 16.664C571.246 14.8933 568.953 14.008 565.86 14.008H556.868V44.792Z" fill="#096964"/>
<defs>
<linearGradient id="paint0_linear_713_5834" x1="-1" y1="43" x2="241" y2="43" gradientUnits="userSpaceOnUse">
<stop offset="0.281782" stop-color="#096964"/>
<stop offset="1" stop-color="#096964" stop-opacity="0"/>
</linearGradient>
<linearGradient id="paint1_linear_713_5834" x1="809" y1="43" x2="1976" y2="43" gradientUnits="userSpaceOnUse">
<stop stop-color="#096964" stop-opacity="0.05"/>
<stop offset="0.327601" stop-color="#096964"/>
</linearGradient>
</defs>
</svg>
