<svg width="82" height="42" viewBox="0 0 82 42" fill="none" xmlns="http://www.w3.org/2000/svg">
    <path fill-rule="evenodd" clip-rule="evenodd"
        d="M14.7708 21V41.4862H19.5317H24.2925V21V0.51385H19.5317H14.7708V21ZM28.6206 21V41.5L33.4536 41.4209L38.2866 41.3419V21V0.658119L33.4536 0.57906L28.6206 0.5V21ZM42.6031 0.874522C42.5272 1.07304 42.4989 10.2592 42.5399 21.2885L42.6146 41.3419L47.4476 41.4209L52.2806 41.5V25.4793V9.45851H56.6087H60.9368V4.98618V0.51385H51.8389C44.8263 0.51385 42.7093 0.59666 42.6031 0.874522ZM0.702572 21.0721L0.776726 41.3419H5.53759H10.2985L10.3726 21.0721L10.4468 0.802387H5.53759H0.628418L0.702572 21.0721ZM65.2648 5.25452V9.4034L66.7967 10.2679C68.8574 11.4309 71.1262 13.9695 71.941 16.0236C72.4938 17.4178 72.6003 18.2358 72.6104 21.1593C72.6225 24.6102 72.6141 24.6535 71.5342 26.8391C69.2902 31.379 65.4226 33.4071 59.0082 33.4071H56.6087V37.3024V41.1976H60.4578C65.07 41.1976 67.6663 40.6361 71.3241 38.8478C74.7975 37.1494 78.2455 33.6994 79.934 30.2332C81.5793 26.8553 82 24.9755 82 21C82 15.0567 80.2027 10.5737 76.2806 6.73471C73.6754 4.18462 69.4183 1.88065 66.2026 1.28049L65.2648 1.10535V5.25452Z"
        fill="white" />
</svg>
