<svg width="26" height="24" viewBox="0 0 26 24" fill="none" xmlns="http://www.w3.org/2000/svg">
<path fill-rule="evenodd" clip-rule="evenodd" d="M12.7371 13.7097C11.9566 13.7097 11.1784 13.4519 10.5274 12.9362L5.29491 8.71756C4.91808 8.41422 4.85975 7.86239 5.16191 7.48672C5.46642 7.11222 6.01708 7.05272 6.39275 7.35489L11.6206 11.5689C12.2774 12.0892 13.2026 12.0892 13.8641 11.5642L19.0394 7.35722C19.4151 7.05039 19.9657 7.10872 20.2714 7.48439C20.5759 7.85889 20.5188 8.40956 20.1442 8.71522L14.9596 12.9292C14.3039 13.4496 13.5199 13.7097 12.7371 13.7097Z" fill="black"/>
<mask id="mask0_1295_1386" style="mask-type:luminance" maskUnits="userSpaceOnUse" x="0" y="0" width="26" height="24">
<path fill-rule="evenodd" clip-rule="evenodd" d="M0.16394 0.333984H25.2472V23.084H0.16394V0.333984Z" fill="white"/>
</mask>
<g mask="url(#mask0_1295_1386)">
<path fill-rule="evenodd" clip-rule="evenodd" d="M6.97489 21.334H18.4316C18.4339 21.3317 18.4432 21.334 18.4502 21.334C19.7814 21.334 20.9621 20.858 21.8674 19.9538C22.9186 18.9073 23.4961 17.4035 23.4961 15.72V7.70732C23.4961 4.44882 21.3657 2.08398 18.4316 2.08398H6.97722C4.04305 2.08398 1.91272 4.44882 1.91272 7.70732V15.72C1.91272 17.4035 2.49139 18.9073 3.54139 19.9538C4.44672 20.858 5.62855 21.334 6.95855 21.334H6.97489ZM6.95505 23.084C5.15489 23.084 3.54722 22.4307 2.30589 21.194C0.923387 19.815 0.16272 17.8713 0.16272 15.72V7.70732C0.16272 3.50382 3.09222 0.333984 6.97722 0.333984H18.4316C22.3166 0.333984 25.2461 3.50382 25.2461 7.70732V15.72C25.2461 17.8713 24.4854 19.815 23.1029 21.194C21.8627 22.4295 20.2539 23.084 18.4502 23.084H18.4316H6.97722H6.95505Z" fill="black"/>
</g>
</svg>
