<svg width="1920" height="66" viewBox="0 0 1920 66" fill="none" xmlns="http://www.w3.org/2000/svg">
<rect opacity="0.2" x="-1" y="35" width="242" height="16" fill="url(#paint0_linear_713_5917)"/>
<rect opacity="0.2" x="809" y="35" width="1167" height="16" fill="url(#paint1_linear_713_5917)"/>
<path d="M296.472 51.288C290.755 51.288 286.765 50.072 284.504 47.64C282.243 45.1867 281.112 40.8773 281.112 34.712H285.112C285.112 40.3227 286.04 44.0133 287.896 45.784C289.773 47.5547 292.621 48.44 296.44 48.44C300.216 48.44 303.053 47.6933 304.952 46.2C306.872 44.7067 307.832 42.744 307.832 40.312C307.832 37.3467 306.733 35.256 304.536 34.04C302.339 32.824 299.213 31.6827 295.16 30.616C290.317 29.3147 286.765 27.864 284.504 26.264C282.264 24.664 281.144 22.104 281.144 18.584C281.144 15.4907 282.317 12.8667 284.664 10.712C287.032 8.536 290.957 7.448 296.44 7.448C302.093 7.448 306.061 8.696 308.344 11.192C310.627 13.6667 311.768 17.8267 311.768 23.672H307.736C307.736 18.232 306.787 14.648 304.888 12.92C302.989 11.1707 300.163 10.296 296.408 10.296C292.653 10.296 289.816 11.0533 287.896 12.568C285.997 14.0613 285.048 15.928 285.048 18.168C285.048 20.9627 286.136 23.0107 288.312 24.312C290.488 25.592 293.581 26.7547 297.592 27.8C302.541 29.144 306.136 30.5733 308.376 32.088C310.637 33.5813 311.768 36.1627 311.768 39.832C311.768 43.0533 310.605 45.7733 308.28 47.992C305.955 50.1893 302.019 51.288 296.472 51.288ZM333.87 51.384C331.416 51.384 329.39 50.8293 327.79 49.72C326.19 48.6107 325.39 46.4987 325.39 43.384V15.96H316.366V13.112H325.39V4.568H329.326V13.112H342.382V15.96H329.326V42.36C329.326 44.856 329.827 46.52 330.83 47.352C331.854 48.1627 333.294 48.568 335.15 48.568C336.707 48.568 338.211 48.344 339.662 47.896V50.648C337.827 51.1387 335.896 51.384 333.87 51.384ZM372.263 51L371.463 44.376V13.112H375.399V51H372.263ZM352.103 13.048V35.608C352.103 40.1307 352.828 43.416 354.279 45.464C355.751 47.4907 357.98 48.504 360.967 48.504C363.932 48.504 366.428 47.48 368.455 45.432C370.481 43.384 371.495 40.8453 371.495 37.816L373.415 39.544C373.415 42.488 372.145 45.1973 369.607 47.672C367.089 50.1253 363.783 51.352 359.687 51.352C355.569 51.352 352.615 49.9973 350.823 47.288C349.052 44.5787 348.167 40.7173 348.167 35.704V13.048H352.103ZM407.333 51L407.077 44.408V0.759998H411.013V51H407.333ZM395.077 51.256C390.874 51.256 387.653 49.7307 385.413 46.68C383.194 43.608 382.085 38.712 382.085 31.992C382.085 25.2293 383.194 20.3227 385.413 17.272C387.653 14.2213 390.874 12.696 395.077 12.696C398.981 12.696 402.234 13.7413 404.837 15.832C407.439 17.9013 408.741 19.9707 408.741 22.04L407.077 24.696C407.077 22.4347 406.031 20.3547 403.941 18.456C401.85 16.536 399.311 15.576 396.325 15.576C393.21 15.576 390.725 16.76 388.869 19.128C387.013 21.496 386.085 25.784 386.085 31.992C386.085 38.2 387.013 42.488 388.869 44.856C390.725 47.224 393.21 48.408 396.325 48.408C399.311 48.408 401.85 47.448 403.941 45.528C406.031 43.608 407.077 41.5067 407.077 39.224L408.741 41.944C408.741 44.0133 407.439 46.0827 404.837 48.152C402.234 50.2213 398.981 51.256 395.077 51.256ZM426.889 51L415.625 13.112H419.753L429.865 48.12H429.929L439.945 13.112H444.105L432.905 51H426.889ZM416.424 65.688V62.872C419.582 62.872 422.153 62.072 424.137 60.472C426.142 58.8933 427.827 55.736 429.193 51H432.905C431.219 56.824 429.043 60.728 426.377 62.712C423.71 64.696 420.393 65.688 416.424 65.688ZM621.455 51.352C619.471 51.352 617.572 51.2027 615.759 50.904C613.945 50.584 612.26 50.104 610.703 49.464C609.145 48.8027 607.727 47.96 606.447 46.936C605.188 45.912 604.111 44.6747 603.215 43.224C602.319 41.7733 601.625 40.0987 601.135 38.2C600.665 36.3013 600.441 34.1573 600.463 31.768C600.463 28.568 600.825 25.6987 601.551 23.16C602.276 20.6213 603.332 18.4133 604.719 16.536C606.105 14.6587 607.812 13.1013 609.839 11.864C611.887 10.6267 614.233 9.70933 616.878 9.112C619.524 8.49333 622.468 8.184 625.711 8.184C629.337 8.184 632.473 8.58933 635.119 9.4C637.785 10.1893 639.961 11.3733 641.647 12.952C643.332 14.5307 644.58 16.4613 645.391 18.744C646.223 21.0053 646.628 23.608 646.607 26.552C646.585 28.792 646.361 30.776 645.935 32.504C645.508 34.2107 644.921 35.6827 644.175 36.92C643.449 38.136 642.596 39.1387 641.615 39.928C640.633 40.696 639.577 41.2613 638.447 41.624C637.316 41.9867 636.164 42.168 634.991 42.168C634.137 42.168 633.327 42.072 632.559 41.88C631.812 41.6667 631.14 41.3573 630.543 40.952C629.967 40.5253 629.529 40.0133 629.231 39.416C628.953 38.8187 628.857 38.1573 628.943 37.432C628.687 38.2427 628.196 38.9467 627.471 39.544C626.767 40.1413 625.892 40.6 624.847 40.92C623.801 41.24 622.66 41.4 621.423 41.4C620.42 41.4 619.439 41.1867 618.479 40.76C617.54 40.312 616.697 39.6507 615.951 38.776C615.204 37.9013 614.607 36.8027 614.159 35.48C613.732 34.1573 613.519 32.6213 613.519 30.872C613.54 28.7173 613.828 26.8293 614.383 25.208C614.959 23.5653 615.716 22.1893 616.655 21.08C617.593 19.9707 618.66 19.128 619.855 18.552C621.049 17.976 622.265 17.688 623.503 17.688C624.74 17.688 625.807 17.9227 626.703 18.392C627.599 18.84 628.292 19.3733 628.783 19.992C629.273 20.5893 629.54 21.1227 629.583 21.592L629.871 18.232H632.015L630.479 36.088C630.393 37.0907 630.543 37.8907 630.927 38.488C631.332 39.0853 631.897 39.512 632.623 39.768C633.369 40.024 634.191 40.152 635.087 40.152C636.644 40.152 638.031 39.6827 639.247 38.744C640.463 37.784 641.423 36.312 642.127 34.328C642.831 32.3227 643.193 29.752 643.215 26.616C643.236 24.0347 642.916 21.752 642.255 19.768C641.615 17.784 640.58 16.12 639.151 14.776C637.721 13.4107 635.855 12.376 633.551 11.672C631.268 10.968 628.527 10.616 625.327 10.616C621.913 10.616 618.873 11.032 616.207 11.864C613.561 12.696 611.321 13.976 609.487 15.704C607.673 17.4107 606.287 19.576 605.327 22.2C604.367 24.824 603.876 27.928 603.855 31.512C603.833 34.0507 604.111 36.28 604.687 38.2C605.263 40.12 606.073 41.7627 607.119 43.128C608.185 44.4933 609.455 45.6027 610.927 46.456C612.399 47.288 614.041 47.9067 615.855 48.312C617.689 48.696 619.631 48.888 621.679 48.888C623.876 48.888 625.743 48.7173 627.279 48.376C628.836 48.0347 630.127 47.6293 631.151 47.16C632.175 46.6907 632.953 46.2427 633.486 45.816C634.02 45.3893 634.34 45.112 634.447 44.984L636.591 46.936C636.356 47.1707 635.876 47.5333 635.151 48.024C634.447 48.5147 633.476 49.016 632.239 49.528C631.023 50.0187 629.519 50.4453 627.727 50.808C625.935 51.1707 623.844 51.352 621.455 51.352ZM622.127 39.512C623.791 39.512 625.209 39.032 626.383 38.072C627.577 37.112 628.271 35.9067 628.463 34.456L629.231 24.728C629.252 23.704 629.007 22.8293 628.495 22.104C627.983 21.3573 627.311 20.792 626.479 20.408C625.647 20.0027 624.772 19.8 623.855 19.8C622.98 19.8 622.084 20.0453 621.167 20.536C620.271 21.0053 619.439 21.7093 618.671 22.648C617.924 23.5653 617.316 24.7067 616.847 26.072C616.399 27.416 616.175 28.9413 616.175 30.648C616.153 32.0347 616.303 33.2827 616.623 34.392C616.943 35.48 617.369 36.408 617.903 37.176C618.457 37.9227 619.097 38.4987 619.823 38.904C620.569 39.3093 621.337 39.512 622.127 39.512ZM655.143 51V7.8H659.079V51H655.143ZM670.206 51V7.8H674.142V51H670.206ZM685.268 51V7.8H689.204V51H685.268ZM710.616 51V10.648H697.144V7.8H728.024V10.648H714.584V51H710.616ZM733.19 51V7.8H748.998C754.118 7.8 757.84 9.32533 760.166 12.376C762.512 15.4267 763.686 21.1013 763.686 29.4C763.686 37.6773 762.512 43.352 760.166 46.424C757.819 49.4747 754.096 51 748.998 51H733.19ZM737.158 48.152H747.942C751.867 48.152 754.811 46.936 756.774 44.504C758.736 42.072 759.718 37.0373 759.718 29.4C759.718 21.7413 758.736 16.7067 756.774 14.296C754.811 11.864 751.867 10.648 747.942 10.648H737.158V48.152Z" fill="black"/>
<path d="M464.217 51V7.8H485.817C490.98 7.8 494.393 9.29333 496.057 12.28C497.742 15.2667 498.585 18.968 498.585 23.384C498.585 27.8213 497.742 31.544 496.057 34.552C494.372 37.5387 490.958 39.032 485.817 39.032H473.305V51H464.217ZM473.305 32.792H483.097C485.465 32.792 487.129 32.0347 488.089 30.52C489.07 28.984 489.561 26.616 489.561 23.416C489.561 20.216 489.07 17.848 488.089 16.312C487.108 14.776 485.444 14.008 483.097 14.008H473.305V32.792ZM504.039 51V0.759998H513.031V51H504.039ZM528.519 51V30.264C528.519 25.976 527.921 23.0213 526.727 21.4C525.553 19.7573 523.783 18.936 521.415 18.936C519.004 18.936 516.977 19.8747 515.335 21.752C513.692 23.6293 512.871 26.04 512.871 28.984L508.519 26.744C508.519 23.48 510.012 20.3333 512.999 17.304C516.007 14.2533 519.932 12.728 524.775 12.728C529.447 12.728 532.732 14.264 534.631 17.336C536.529 20.3867 537.479 24.568 537.479 29.88V51H528.519ZM543.717 51V7.8H564.261C570.042 7.8 574.106 9.37867 576.453 12.536C578.821 15.6933 580.005 21.304 580.005 29.368C580.005 37.4533 578.821 43.0853 576.453 46.264C574.085 49.4213 570.021 51 564.261 51H543.717ZM552.805 44.792H561.797C564.89 44.792 567.184 43.9067 568.677 42.136C570.17 40.3653 570.917 36.1093 570.917 29.368C570.917 22.648 570.17 18.4133 568.677 16.664C567.184 14.8933 564.89 14.008 561.797 14.008H552.805V44.792Z" fill="#096964"/>
<defs>
<linearGradient id="paint0_linear_713_5917" x1="-1" y1="43" x2="241" y2="43" gradientUnits="userSpaceOnUse">
<stop offset="0.281782" stop-color="#096964"/>
<stop offset="1" stop-color="#096964" stop-opacity="0"/>
</linearGradient>
<linearGradient id="paint1_linear_713_5917" x1="809" y1="43" x2="1976" y2="43" gradientUnits="userSpaceOnUse">
<stop stop-color="#096964" stop-opacity="0.05"/>
<stop offset="0.327601" stop-color="#096964"/>
</linearGradient>
</defs>
</svg>
