<svg width="1920" height="66" viewBox="0 0 1920 66" fill="none" xmlns="http://www.w3.org/2000/svg">
<rect opacity="0.2" width="569" height="16" transform="matrix(-1 0 0 1 568 25)" fill="url(#paint0_linear_713_5855)"/>
<path d="M605.28 51V7.8H626.88C632.042 7.8 635.456 9.29333 637.12 12.28C638.805 15.2667 639.648 18.968 639.648 23.384C639.648 27.8213 638.805 31.544 637.12 34.552C635.434 37.5387 632.021 39.032 626.88 39.032H614.368V51H605.28ZM614.368 32.792H624.16C626.528 32.792 628.192 32.0347 629.152 30.52C630.133 28.984 630.624 26.616 630.624 23.416C630.624 20.216 630.133 17.848 629.152 16.312C628.17 14.776 626.506 14.008 624.16 14.008H614.368V32.792ZM668.685 31.32C668.685 26.3707 668.109 23.0747 666.957 21.432C665.805 19.7893 664.152 18.968 661.997 18.968C659.544 18.968 657.602 19.8107 656.173 21.496C654.744 23.1813 654.029 25.0907 654.029 27.224L650.573 25.048C650.573 21.592 651.917 18.68 654.605 16.312C657.314 13.9227 660.898 12.728 665.357 12.728C670.093 12.728 673.325 14.232 675.053 17.24C676.802 20.2267 677.677 24.92 677.677 31.32H668.685ZM645.101 51V13.08H652.077L654.061 19.96V51H645.101ZM700.596 51.288C694.175 51.288 689.535 49.656 686.676 46.392C683.817 43.1067 682.388 38.2747 682.388 31.896C682.388 25.5173 683.817 20.7173 686.676 17.496C689.535 14.2747 694.175 12.664 700.596 12.664C707.017 12.664 711.657 14.2747 714.516 17.496C717.375 20.7173 718.804 25.5173 718.804 31.896C718.804 38.2747 717.375 43.1067 714.516 46.392C711.657 49.656 707.017 51.288 700.596 51.288ZM700.596 45.144C703.284 45.144 705.492 44.2587 707.22 42.488C708.948 40.696 709.812 37.1867 709.812 31.96C709.812 26.712 708.948 23.2027 707.22 21.432C705.492 19.6613 703.284 18.776 700.596 18.776C697.908 18.776 695.7 19.6613 693.972 21.432C692.244 23.2027 691.38 26.712 691.38 31.96C691.38 37.1867 692.244 40.696 693.972 42.488C695.7 44.2587 697.908 45.144 700.596 45.144ZM740.892 65.944C736.476 65.944 732.689 64.9733 729.532 63.032C726.396 61.112 724.625 57.784 724.22 53.048H733.02C733.169 54.7547 733.585 56.1307 734.268 57.176C734.972 58.2427 735.921 59.0107 737.116 59.48C738.311 59.9707 739.665 60.216 741.18 60.216C743.719 60.216 745.767 59.576 747.324 58.296C748.881 57.0373 749.66 54.3493 749.66 50.232V20.664L752.028 13.08H758.652V49.336C758.652 53.5813 757.831 56.92 756.188 59.352C754.545 61.784 752.508 63.4907 750.076 64.472C747.644 65.4533 744.583 65.944 740.892 65.944ZM737.756 51.224C732.849 51.224 729.223 49.56 726.876 46.232C724.551 42.904 723.388 38.1467 723.388 31.96C723.388 25.752 724.54 20.9947 726.844 17.688C729.148 14.3813 732.753 12.728 737.66 12.728C742.012 12.728 745.756 13.816 748.892 15.992C752.028 18.1467 753.596 20.44 753.596 22.872L749.628 26.808C749.628 24.6747 748.753 22.8293 747.004 21.272C745.255 19.7147 743.164 18.936 740.732 18.936C738.151 18.936 736.124 19.832 734.652 21.624C733.201 23.416 732.476 26.872 732.476 31.992C732.476 37.1333 733.201 40.6 734.652 42.392C736.124 44.184 738.151 45.08 740.732 45.08C743.164 45.08 745.255 44.3013 747.004 42.744C748.753 41.1653 749.628 39.2987 749.628 37.144L753.628 41.336C753.628 43.8107 752.071 46.0827 748.956 48.152C745.841 50.2 742.108 51.224 737.756 51.224ZM789.123 31.32C789.123 26.3707 788.547 23.0747 787.395 21.432C786.243 19.7893 784.589 18.968 782.435 18.968C779.981 18.968 778.04 19.8107 776.611 21.496C775.181 23.1813 774.467 25.0907 774.467 27.224L771.01 25.048C771.01 21.592 772.355 18.68 775.043 16.312C777.752 13.9227 781.336 12.728 785.795 12.728C790.531 12.728 793.763 14.232 795.491 17.24C797.24 20.2267 798.115 24.92 798.115 31.32H789.123ZM765.539 51V13.08H772.515L774.499 19.96V51H765.539ZM817.189 51.384C815.013 51.384 813.072 51.2027 811.365 50.84C809.658 50.456 808.186 49.8267 806.949 48.952C805.733 48.0773 804.805 46.8933 804.165 45.4C803.525 43.8853 803.205 41.9973 803.205 39.736C803.205 37.5813 803.514 35.7787 804.133 34.328C804.752 32.8773 805.648 31.7253 806.821 30.872C808.016 29.9973 809.477 29.368 811.205 28.984C812.933 28.6 814.896 28.408 817.093 28.408H829.253V26.68C829.253 24.76 828.912 23.224 828.229 22.072C827.568 20.92 826.618 20.088 825.381 19.576C824.144 19.0427 822.661 18.776 820.933 18.776C819.525 18.776 818.234 19.0107 817.061 19.48C815.888 19.9493 814.896 20.7173 814.085 21.784C813.296 22.8293 812.741 24.248 812.421 26.04L803.621 23.64C804.026 21.6133 804.752 19.9067 805.797 18.52C806.864 17.112 808.165 15.992 809.701 15.16C811.237 14.3067 812.954 13.688 814.853 13.304C816.752 12.8987 818.768 12.696 820.901 12.696C824.656 12.696 827.824 13.176 830.405 14.136C832.986 15.096 834.938 16.632 836.261 18.744C837.605 20.8347 838.277 23.6293 838.277 27.128V51H830.789L830.021 46.456C829.701 47.032 829.178 47.608 828.453 48.184C827.728 48.7387 826.81 49.2613 825.701 49.752C824.613 50.2427 823.354 50.6373 821.925 50.936C820.496 51.2347 818.917 51.384 817.189 51.384ZM819.205 45.56C820.869 45.56 822.373 45.368 823.717 44.984C825.061 44.5787 826.192 44.056 827.109 43.416C828.048 42.776 828.72 42.104 829.125 41.4V33.368H819.205C818.224 33.368 817.306 33.4533 816.453 33.624C815.621 33.7733 814.896 34.0613 814.277 34.488C813.658 34.9147 813.178 35.5333 812.837 36.344C812.496 37.1333 812.325 38.1573 812.325 39.416C812.325 40.6747 812.496 41.7093 812.837 42.52C813.178 43.3093 813.658 43.928 814.277 44.376C814.917 44.8027 815.653 45.112 816.485 45.304C817.317 45.4747 818.224 45.56 819.205 45.56ZM844.726 51V13.08H851.702L853.718 19.032V51H844.726ZM866.71 51V29.112C866.71 25.5493 866.251 22.968 865.334 21.368C864.417 19.768 862.923 18.968 860.854 18.968C858.721 18.968 856.982 19.8533 855.638 21.624C854.315 23.3947 853.654 25.976 853.654 29.368L848.886 27.32C848.886 23.672 850.347 20.3333 853.27 17.304C856.214 14.2747 859.734 12.76 863.83 12.76C868.502 12.76 871.638 14.2853 873.238 17.336C874.859 20.3867 875.67 24.0773 875.67 28.408V51H866.71ZM888.566 51V29.112C888.566 25.5493 888.129 22.968 887.254 21.368C886.379 19.768 884.897 18.968 882.806 18.968C880.694 18.968 878.966 19.8533 877.622 21.624C876.299 23.3947 875.638 25.976 875.638 29.368L870.838 27.32C870.838 23.7573 872.31 20.44 875.254 17.368C878.198 14.296 881.718 12.76 885.814 12.76C890.486 12.76 893.611 14.296 895.19 17.368C896.769 20.4187 897.558 24.0987 897.558 28.408V51H888.566ZM904.164 51V13.08H911.14L913.156 19.032V51H904.164ZM926.148 51V29.112C926.148 25.5493 925.689 22.968 924.772 21.368C923.854 19.768 922.361 18.968 920.292 18.968C918.158 18.968 916.42 19.8533 915.076 21.624C913.753 23.3947 913.092 25.976 913.092 29.368L908.324 27.32C908.324 23.672 909.785 20.3333 912.708 17.304C915.652 14.2747 919.172 12.76 923.268 12.76C927.94 12.76 931.076 14.2853 932.676 17.336C934.297 20.3867 935.108 24.0773 935.108 28.408V51H926.148ZM948.004 51V29.112C948.004 25.5493 947.566 22.968 946.692 21.368C945.817 19.768 944.334 18.968 942.244 18.968C940.132 18.968 938.404 19.8533 937.06 21.624C935.737 23.3947 935.076 25.976 935.076 29.368L930.276 27.32C930.276 23.7573 931.748 20.44 934.692 17.368C937.636 14.296 941.156 12.76 945.252 12.76C949.924 12.76 953.049 14.296 954.628 17.368C956.206 20.4187 956.996 24.0987 956.996 28.408V51H948.004ZM980.785 51.32C974.15 51.32 969.457 49.6027 966.705 46.168C963.932 42.712 962.545 37.9867 962.545 31.992C962.545 25.7413 963.953 20.9627 966.769 17.656C969.564 14.3493 974.182 12.696 980.625 12.696C987.281 12.696 991.953 14.36 994.641 17.688C997.286 21.0587 998.609 25.8053 998.609 31.928C998.609 32.9307 998.545 33.848 998.417 34.68H970.385V29.208H989.521C989.308 25.368 988.572 22.68 987.313 21.144C985.713 19.3947 983.494 18.52 980.657 18.52C977.862 18.52 975.601 19.4587 973.873 21.336C972.124 23.192 971.249 26.744 971.249 31.992C971.249 37.0693 972.113 40.5787 973.841 42.52C975.526 44.504 977.841 45.496 980.785 45.496V51.32ZM980.785 45.496C982.492 45.496 983.942 45.2507 985.137 44.76C986.332 44.248 987.27 43.384 987.953 42.168C988.614 40.952 989.148 39.5653 989.553 38.008L997.617 40.248C997.212 42.7867 996.273 44.8773 994.801 46.52C993.329 48.184 991.516 49.4 989.361 50.168C987.206 50.936 984.348 51.32 980.785 51.32V45.496Z" fill="#096964"/>
<path d="M1035.16 51.288C1029.44 51.288 1025.45 50.072 1023.19 47.64C1020.93 45.1867 1019.8 40.8773 1019.8 34.712H1023.8C1023.8 40.3227 1024.73 44.0133 1026.58 45.784C1028.46 47.5547 1031.31 48.44 1035.13 48.44C1038.9 48.44 1041.74 47.6933 1043.64 46.2C1045.56 44.7067 1046.52 42.744 1046.52 40.312C1046.52 37.3467 1045.42 35.256 1043.22 34.04C1041.03 32.824 1037.9 31.6827 1033.85 30.616C1029 29.3147 1025.45 27.864 1023.19 26.264C1020.95 24.664 1019.83 22.104 1019.83 18.584C1019.83 15.4907 1021 12.8667 1023.35 10.712C1025.72 8.536 1029.64 7.448 1035.13 7.448C1040.78 7.448 1044.75 8.696 1047.03 11.192C1049.31 13.6667 1050.46 17.8267 1050.46 23.672H1046.42C1046.42 18.232 1045.47 14.648 1043.58 12.92C1041.68 11.1707 1038.85 10.296 1035.1 10.296C1031.34 10.296 1028.5 11.0533 1026.58 12.568C1024.68 14.0613 1023.74 15.928 1023.74 18.168C1023.74 20.9627 1024.82 23.0107 1027 24.312C1029.18 25.592 1032.27 26.7547 1036.28 27.8C1041.23 29.144 1044.82 30.5733 1047.06 32.088C1049.32 33.5813 1050.46 36.1627 1050.46 39.832C1050.46 43.0533 1049.29 45.7733 1046.97 47.992C1044.64 50.1893 1040.71 51.288 1035.16 51.288ZM1072.56 51.384C1070.1 51.384 1068.08 50.8293 1066.48 49.72C1064.88 48.6107 1064.08 46.4987 1064.08 43.384V15.96H1055.05V13.112H1064.08V4.568H1068.01V13.112H1081.07V15.96H1068.01V42.36C1068.01 44.856 1068.51 46.52 1069.52 47.352C1070.54 48.1627 1071.98 48.568 1073.84 48.568C1075.39 48.568 1076.9 48.344 1078.35 47.896V50.648C1076.51 51.1387 1074.58 51.384 1072.56 51.384ZM1108.97 30.168C1108.97 24.7067 1108.29 20.92 1106.95 18.808C1105.63 16.6747 1103.61 15.608 1100.9 15.608C1097.85 15.608 1095.46 16.6107 1093.73 18.616C1092.03 20.6 1091.17 22.84 1091.17 25.336L1089.64 23.928C1089.64 20.856 1090.76 18.232 1093 16.056C1095.26 13.8587 1098.34 12.76 1102.25 12.76C1106.15 12.76 1108.9 14.136 1110.5 16.888C1112.12 19.6187 1112.93 24.0453 1112.93 30.168H1108.97ZM1087.27 51V13.112H1090.41L1091.21 20.888V51H1087.27ZM1144.01 51L1143.21 44.376V13.112H1147.15V51H1144.01ZM1123.85 13.048V35.608C1123.85 40.1307 1124.58 43.416 1126.03 45.464C1127.5 47.4907 1129.73 48.504 1132.72 48.504C1135.68 48.504 1138.18 47.48 1140.2 45.432C1142.23 43.384 1143.24 40.8453 1143.24 37.816L1145.16 39.544C1145.16 42.488 1143.9 45.1973 1141.36 47.672C1138.84 50.1253 1135.53 51.352 1131.44 51.352C1127.32 51.352 1124.36 49.9973 1122.57 47.288C1120.8 44.5787 1119.92 40.7173 1119.92 35.704V13.048H1123.85ZM1168.49 51.288C1163.41 51.288 1159.63 49.6453 1157.13 46.36C1154.66 43.0533 1153.42 38.2853 1153.42 32.056C1153.42 25.4 1154.66 20.5253 1157.13 17.432C1159.63 14.3173 1163.41 12.76 1168.49 12.76C1173.27 12.76 1176.73 14.1253 1178.86 16.856C1181.01 19.5867 1182.15 22.7013 1182.28 26.2L1178.7 27.288C1178.66 23.9387 1177.76 21.1547 1176.01 18.936C1174.28 16.7173 1171.78 15.608 1168.49 15.608C1165.12 15.608 1162.43 16.856 1160.43 19.352C1158.42 21.8267 1157.42 26.0613 1157.42 32.056C1157.42 37.6027 1158.43 41.72 1160.46 44.408C1162.49 47.096 1165.16 48.44 1168.49 48.44C1171.75 48.44 1174.26 47.2347 1176.01 44.824C1177.76 42.392 1178.66 39.736 1178.7 36.856L1182.28 37.976C1182.15 41.0267 1181.01 44.0133 1178.86 46.936C1176.7 49.8373 1173.25 51.288 1168.49 51.288ZM1204.49 51.384C1202.04 51.384 1200.01 50.8293 1198.41 49.72C1196.81 48.6107 1196.01 46.4987 1196.01 43.384V15.96H1186.99V13.112H1196.01V4.568H1199.95V13.112H1213.01V15.96H1199.95V42.36C1199.95 44.856 1200.45 46.52 1201.45 47.352C1202.48 48.1627 1203.92 48.568 1205.77 48.568C1207.33 48.568 1208.84 48.344 1210.29 47.896V50.648C1208.45 51.1387 1206.52 51.384 1204.49 51.384ZM1242.89 51L1242.09 44.376V13.112H1246.02V51H1242.89ZM1222.73 13.048V35.608C1222.73 40.1307 1223.45 43.416 1224.9 45.464C1226.38 47.4907 1228.6 48.504 1231.59 48.504C1234.56 48.504 1237.05 47.48 1239.08 45.432C1241.11 43.384 1242.12 40.8453 1242.12 37.816L1244.04 39.544C1244.04 42.488 1242.77 45.1973 1240.23 47.672C1237.71 50.1253 1234.41 51.352 1230.31 51.352C1226.19 51.352 1223.24 49.9973 1221.45 47.288C1219.68 44.5787 1218.79 40.7173 1218.79 35.704V13.048H1222.73ZM1275.65 30.168C1275.65 24.7067 1274.98 20.92 1273.64 18.808C1272.31 16.6747 1270.3 15.608 1267.59 15.608C1264.54 15.608 1262.15 16.6107 1260.42 18.616C1258.71 20.6 1257.86 22.84 1257.86 25.336L1256.33 23.928C1256.33 20.856 1257.45 18.232 1259.69 16.056C1261.95 13.8587 1265.03 12.76 1268.93 12.76C1272.84 12.76 1275.59 14.136 1277.19 16.888C1278.81 19.6187 1279.62 24.0453 1279.62 30.168H1275.65ZM1253.96 51V13.112H1257.09L1257.89 20.888V51H1253.96ZM1299.56 51.288C1294.44 51.288 1290.68 49.592 1288.27 46.2C1285.83 42.808 1284.62 38.04 1284.62 31.896C1284.62 25.3253 1285.88 20.4827 1288.39 17.368C1290.89 14.2747 1294.61 12.728 1299.56 12.728C1304.66 12.728 1308.4 14.264 1310.79 17.336C1313.16 20.4293 1314.35 25.2507 1314.35 31.8C1314.35 32.2693 1314.32 32.7387 1314.28 33.208H1287.91V30.616H1310.38C1310.25 25.1547 1309.31 21.2827 1307.56 19C1305.64 16.632 1302.98 15.448 1299.56 15.448C1296.23 15.448 1293.56 16.6747 1291.53 19.128C1289.48 21.5813 1288.46 25.848 1288.46 31.928C1288.46 37.56 1289.43 41.7307 1291.37 44.44C1293.31 47.192 1296.04 48.568 1299.56 48.568V51.288ZM1299.56 48.568C1301.59 48.568 1303.39 48.2053 1304.97 47.48C1306.55 46.7333 1307.76 45.4747 1308.62 43.704C1309.43 41.912 1309.97 39.9387 1310.25 37.784L1313.87 38.648C1313.57 41.3147 1312.84 43.64 1311.69 45.624C1310.52 47.6293 1308.93 49.0693 1306.92 49.944C1304.9 50.84 1302.44 51.288 1299.56 51.288V48.568Z" fill="black"/>
<rect opacity="0.2" x="1352" y="25" width="569" height="16" fill="url(#paint1_linear_713_5855)"/>
<defs>
<linearGradient id="paint0_linear_713_5855" x1="0" y1="8" x2="569" y2="8" gradientUnits="userSpaceOnUse">
<stop stop-color="#096964" stop-opacity="0.05"/>
<stop offset="0.327601" stop-color="#096964"/>
</linearGradient>
<linearGradient id="paint1_linear_713_5855" x1="1352" y1="33" x2="1921" y2="33" gradientUnits="userSpaceOnUse">
<stop stop-color="#096964" stop-opacity="0.05"/>
<stop offset="0.327601" stop-color="#096964"/>
</linearGradient>
</defs>
</svg>
