<svg width="15" height="15" viewBox="0 0 15 15" fill="none" xmlns="http://www.w3.org/2000/svg">
<mask id="mask0_836_144" style="mask-type:luminance" maskUnits="userSpaceOnUse" x="1" y="0" width="14" height="14">
<path fill-rule="evenodd" clip-rule="evenodd" d="M14.1667 0.333313H1.18221V13.318H14.1667V0.333313Z" fill="white"/>
</mask>
<g mask="url(#mask0_836_144)">
<path fill-rule="evenodd" clip-rule="evenodd" d="M7.67416 1.33333C10.7028 1.33333 13.1668 3.79667 13.1668 6.82533C13.1668 9.854 10.7028 12.318 7.67416 12.318C4.64616 12.318 2.18216 9.854 2.18216 6.82533C2.18216 3.79667 4.64616 1.33333 7.67416 1.33333ZM7.67432 13.318C11.2543 13.318 14.167 10.4053 14.167 6.82531C14.167 3.24531 11.2543 0.333313 7.67432 0.333313C4.09432 0.333313 1.18232 3.24531 1.18232 6.82531C1.18232 10.4053 4.09432 13.318 7.67432 13.318Z" fill="black"/>
</g>
<mask id="mask1_836_144" style="mask-type:luminance" maskUnits="userSpaceOnUse" x="0" y="10" width="5" height="5">
<path fill-rule="evenodd" clip-rule="evenodd" d="M4.00659 10.8046H0.657224V14.1478H4.00659V10.8046Z" fill="white"/>
</mask>
<g mask="url(#mask1_836_144)">
<path fill-rule="evenodd" clip-rule="evenodd" d="M1.15709 14.1478C1.28442 14.1478 1.41242 14.0991 1.51042 14.0018L3.85976 11.6591C4.05509 11.4638 4.05576 11.1471 3.86042 10.9518C3.66576 10.7551 3.34909 10.7565 3.15309 10.9505L0.803758 13.2938C0.608424 13.4891 0.607758 13.8051 0.803091 14.0005C0.900424 14.0991 1.02909 14.1478 1.15709 14.1478Z" fill="black"/>
</g>
</svg>
