<svg width="16" height="16" viewBox="0 0 16 16" fill="none" xmlns="http://www.w3.org/2000/svg">
<mask id="mask0_713_5988" style="mask-type:luminance" maskUnits="userSpaceOnUse" x="1" y="1" width="14" height="14">
<path fill-rule="evenodd" clip-rule="evenodd" d="M14.6665 1.3335H1.68197V14.3182H14.6665V1.3335Z" fill="white"/>
</mask>
<g mask="url(#mask0_713_5988)">
<path fill-rule="evenodd" clip-rule="evenodd" d="M8.174 2.33333C11.2027 2.33333 13.6667 4.79667 13.6667 7.82533C13.6667 10.854 11.2027 13.318 8.174 13.318C5.146 13.318 2.682 10.854 2.682 7.82533C2.682 4.79667 5.146 2.33333 8.174 2.33333ZM8.17384 14.3182C11.7538 14.3182 14.6665 11.4055 14.6665 7.8255C14.6665 4.2455 11.7538 1.3335 8.17384 1.3335C4.59384 1.3335 1.68184 4.2455 1.68184 7.8255C1.68184 11.4055 4.59384 14.3182 8.17384 14.3182Z" fill="white"/>
</g>
<mask id="mask1_713_5988" style="mask-type:luminance" maskUnits="userSpaceOnUse" x="1" y="11" width="4" height="5">
<path fill-rule="evenodd" clip-rule="evenodd" d="M4.50684 11.8047H1.15747V15.1479H4.50684V11.8047Z" fill="white"/>
</mask>
<g mask="url(#mask1_713_5988)">
<path fill-rule="evenodd" clip-rule="evenodd" d="M1.65734 15.1479C1.78467 15.1479 1.91267 15.0992 2.01067 15.0019L4.36 12.6592C4.55534 12.4639 4.556 12.1472 4.36067 11.9519C4.166 11.7552 3.84934 11.7565 3.65334 11.9505L1.304 14.2939C1.10867 14.4892 1.108 14.8052 1.30334 15.0005C1.40067 15.0992 1.52934 15.1479 1.65734 15.1479Z" fill="white"/>
</g>
</svg>
